/* XPM */
static char *a8159eb5dfef4d9ecb65c775562eddedpW9zxrZwdSDWNFvE[] = {
/* columns rows colors chars-per-pixel */
"40 40 256 2 ",
"   c black",
".  c #010101",
"X  c #020202",
"o  c gray1",
"O  c #040404",
"+  c gray2",
"@  c #060606",
"#  c #070707",
"$  c gray3",
"%  c #090909",
"&  c gray4",
"*  c #0B0B0B",
"=  c #0C0C0C",
"-  c gray5",
";  c #0E0E0E",
":  c gray6",
">  c #101010",
",  c #111111",
"<  c gray7",
"1  c #131313",
"2  c gray8",
"3  c #151515",
"4  c #161616",
"5  c gray9",
"6  c #181818",
"7  c #191919",
"8  c gray10",
"9  c #1B1B1B",
"0  c gray11",
"q  c #1D1D1D",
"w  c #1E1E1E",
"e  c gray12",
"r  c #202020",
"t  c gray13",
"y  c #222222",
"u  c #232323",
"i  c gray14",
"p  c #252525",
"a  c gray15",
"s  c #272727",
"d  c #282828",
"f  c gray16",
"g  c #2A2A2A",
"h  c gray17",
"j  c #2C2C2C",
"k  c #2D2D2D",
"l  c gray18",
"z  c #2F2F2F",
"x  c gray19",
"c  c #313131",
"v  c #323232",
"b  c gray20",
"n  c #343434",
"m  c #353535",
"M  c gray21",
"N  c #373737",
"B  c gray22",
"V  c #393939",
"C  c #3A3A3A",
"Z  c gray23",
"A  c #3C3C3C",
"S  c gray24",
"D  c #3E3E3E",
"F  c #3F3F3F",
"G  c gray25",
"H  c #414141",
"J  c gray26",
"K  c #434343",
"L  c #444444",
"P  c gray27",
"I  c #464646",
"U  c gray28",
"Y  c #484848",
"T  c #494949",
"R  c gray29",
"E  c #4B4B4B",
"W  c #4C4C4C",
"Q  c gray30",
"!  c #4E4E4E",
"~  c gray31",
"^  c #505050",
"/  c #515151",
"(  c gray32",
")  c #535353",
"_  c gray33",
"`  c #555555",
"'  c #565656",
"]  c gray34",
"[  c #585858",
"{  c gray35",
"}  c #5A5A5A",
"|  c #5B5B5B",
" . c gray36",
".. c #5D5D5D",
"X. c gray37",
"o. c #5F5F5F",
"O. c #606060",
"+. c gray38",
"@. c #626262",
"#. c gray39",
"$. c #646464",
"%. c #656565",
"&. c gray40",
"*. c #676767",
"=. c #686868",
"-. c DimGray",
";. c #6A6A6A",
":. c gray42",
">. c #6C6C6C",
",. c #6D6D6D",
"<. c gray43",
"1. c #6F6F6F",
"2. c gray44",
"3. c #717171",
"4. c #727272",
"5. c gray45",
"6. c #747474",
"7. c gray46",
"8. c #767676",
"9. c #777777",
"0. c gray47",
"q. c #797979",
"w. c gray48",
"e. c #7B7B7B",
"r. c #7C7C7C",
"t. c gray49",
"y. c #7E7E7E",
"u. c gray50",
"i. c #808080",
"p. c #818181",
"a. c gray51",
"s. c #838383",
"d. c #848484",
"f. c gray52",
"g. c #868686",
"h. c gray53",
"j. c #888888",
"k. c #898989",
"l. c gray54",
"z. c #8B8B8B",
"x. c gray55",
"c. c #8D8D8D",
"v. c #8E8E8E",
"b. c gray56",
"n. c #909090",
"m. c gray57",
"M. c #929292",
"N. c #939393",
"B. c gray58",
"V. c #959595",
"C. c gray59",
"Z. c #979797",
"A. c #989898",
"S. c gray60",
"D. c #9A9A9A",
"F. c #9B9B9B",
"G. c gray61",
"H. c #9D9D9D",
"J. c gray62",
"K. c #9F9F9F",
"L. c #A0A0A0",
"P. c gray63",
"I. c #A2A2A2",
"U. c gray64",
"Y. c #A4A4A4",
"T. c #A5A5A5",
"R. c gray65",
"E. c #A7A7A7",
"W. c gray66",
"Q. c #A9A9A9",
"!. c #AAAAAA",
"~. c gray67",
"^. c #ACACAC",
"/. c gray68",
"(. c #AEAEAE",
"). c #AFAFAF",
"_. c gray69",
"`. c #B1B1B1",
"'. c #B2B2B2",
"]. c gray70",
"[. c #B4B4B4",
"{. c gray71",
"}. c #B6B6B6",
"|. c #B7B7B7",
" X c gray72",
".X c #B9B9B9",
"XX c gray73",
"oX c #BBBBBB",
"OX c #BCBCBC",
"+X c gray74",
"@X c gray",
"#X c gray75",
"$X c #C0C0C0",
"%X c #C1C1C1",
"&X c gray76",
"*X c #C3C3C3",
"=X c gray77",
"-X c #C5C5C5",
";X c #C6C6C6",
":X c gray78",
">X c #C8C8C8",
",X c gray79",
"<X c #CACACA",
"1X c #CBCBCB",
"2X c gray80",
"3X c #CDCDCD",
"4X c #CECECE",
"5X c gray81",
"6X c #D0D0D0",
"7X c gray82",
"8X c #D2D2D2",
"9X c LightGray",
"0X c gray83",
"qX c #D5D5D5",
"wX c gray84",
"eX c #D7D7D7",
"rX c #D8D8D8",
"tX c gray85",
"yX c #DADADA",
"uX c gray86",
"iX c gainsboro",
"pX c #DDDDDD",
"aX c gray87",
"sX c #DFDFDF",
"dX c gray88",
"fX c #E1E1E1",
"gX c #E2E2E2",
"hX c gray89",
"jX c #E4E4E4",
"kX c gray90",
"lX c #E6E6E6",
"zX c #E7E7E7",
"xX c gray91",
"cX c #E9E9E9",
"vX c #EAEAEA",
"bX c gray92",
"nX c #ECECEC",
"mX c gray93",
"MX c #EEEEEE",
"NX c #EFEFEF",
"BX c gray94",
"VX c #F1F1F1",
"CX c gray95",
"ZX c #F3F3F3",
"AX c #F4F4F4",
"SX c gray96",
"DX c #F6F6F6",
"FX c gray97",
"GX c #F8F8F8",
"HX c #F9F9F9",
"JX c gray98",
"KX c #FBFBFB",
"LX c gray99",
"PX c #FDFDFD",
"IX c #FEFEFE",
"UX c white",
/* pixels */
"UXUXUXUXUXUXUXUXUXUXUXUXUXSXqX~.f.&./ I T { 4.V.$XlXIXUXUXUXUXUXUXUXUXUXUXUXUXUX",
"UXUXUXUXUXUXUXUXUXUXUXlXQ.=.D j i u i i i i p d n ^ g.>XFXUXUXUXUXUXUXUXUXUXUXUX",
"UXUXUXUXUXUXUXUXUXMXP.! s r i g l x c c c c z j f i i m >.+XGXUXUXUXUXUXUXKXIXUX",
"UXUXUXUXUXUXUXUX,XO.s r d z b n n b b b b b b b b c k s i m 9.eXUXUXUXUXnXD.bXUX",
"UXUXUXUXUXUXKXQ.S r s x b b b b b b b b b b b b b b b v k a s R `.KXUXHXD.'.PXUX",
"UXUXUXUXUXJXF.x t k b b b b b b b b b b b b b b b b b b b c f a B C.ZXQ.(.UXUXUX",
"UXUXUXUXPXL.k y z b b b b b b b b b v v b b b b b b b b b b v h p n =.P.KXUXUXUX",
"UXUXUXUX'.b t x b b b b b b v c x x z x x x c c v b b b b b b b h s z Z.IXUXUXUX",
"UXUXUX8XJ e z b b b b b v x z x c c c c v v v x x c b b b b b b v g d G &XUXUXUX",
"UXUXZX:.w j b b b b b v z x c v v c c x c v v v v c x v b b b b b v d g +.bXUXUX",
"UXUX(.f p v b b b b c x c v c c v c Z P v c v c c v c x c b b b b b z s v P.UXUX",
"UXNX{ w z b b b b c x c v c B m c x R +.n c c V v v v v x c v v v v v f d ] xXUX",
"UX.Xf a v b v v c z c v v v b b v x Z K b c v v c v b v v x c v v v v z a n ).UX",
"LXq.q l v v v v x x c v v c v v v c z z x c v c c v b b v c x v v v v v d g 2.DX",
"gXY t c v v v c x c c c c c v v c c c c c c c c c c c v v c z c v v v v j s W tX",
"+Xl d v v v v x c c c c c c c c c c c c c c c c c c c v v c x x v v v v z a S OX",
"V.u j v v v v x c c c c c c c c c c c c c c c x x c c v v c x x c c c c x s b I.",
"8.r l c c c c x x x x c x x x x x x x c x x x x x x x c c c x x x c c x x d k g.",
"+.r z c c c x x x x x x x x x x x n R / S x x x x x x x x x c x x x x x x d g 5.",
"^ w z c x x x x x c c x x x x x z U ..! _ n x x x x x x c c c x x x x x x f s &.",
"s.C l x x x x x x c c x x x x x z T ] W [ m x x x x x c c c c x x x x x x a G g.",
"H.D l x x x z x x c c c x x x x x M ^ ] H x x x x x x c c c c x z x x x x a ! |.",
":.w k x x x x x x x c c x x x x x x c b x x x x x x x c c c x x x z z z z a h p.",
"x.t g l z z x x z x c c x x x z x z z z z z z z z z x x x x z z z z z l k p c H.",
"`.f s l l z z x z z x c z z z z z z z z z z z z z z z x x z z z l l l l j i Z #X",
"uXG y l l l l z z l z x z z z z z z z z z z z z z z z x z l z z l l l l f p _ jX",
"GX,.w h l l l l z l l l l l l l l l l l l l l l l l z z l l l l l l l l p d a.KX",
"UX^.p a l l l l z z l l l l l l l l l l l l l l l z l l l z l l l l l h i B &XUX",
"UXlXR e j l l l l l l l l l z z z z z z z z z z z z l l l z l l l k k s p *.CXUX",
"UXUXD.u p j k k k k l l l l l z z z z z z z z z l l l l l k k k j j f u n  XUXUX",
"UXUXvX' q d h h h j j j l l l l l z z z z z z l l l l j h j j h h g i p 7.DXUXUX",
"UXUXUX+Xc r f g g g g g h k k k j j k k k k j k k j h g h g g g g p y Q tXUXUXUX",
"UXUXUXLXM.i t d f f f f f f h j j j j j j j j h g f f f f f f f p t A @XUXUXUXUX",
"UXUXUXUXZX8.t t s d d d d d d d f f f g g f f d d d d d d d d i r C [.UXUXUXUXUX",
"UXUXUXUXUXmX7.u e p s s s s s s s s s s s s s s s s s s d s u e F .XUXUXUXUXUXUX",
"UXUXUXUXUXUXVXx.j 0 y p p p a a p p p p p p p p p p p p i t r W ;XUXUXUXUXUXUXUX",
"UXUXUXUXUXUXUXKX].Y q q y u u u i i u u u u u u i u y r q g 3.iXUXUXUXUXUXUXUXUX",
"UXUXUXUXUXUXUXUXUXfXg.C w 9 e r t t t t t t t r e q 0 a ) _.FXUXUXUXUXUXUXUXUXUX",
"UXUXUXUXUXUXUXUXUXUXIXiXD.} c r 9 9 0 q 0 0 9 q a G 4.[.mXUXUXUXUXUXUXUXUXUXUXUX",
"UXUXUXUXUXUXUXUXUXUXUXUXUXZX4XF.:.T B c n G { a.].dXLXUXUXUXUXUXUXUXUXUXUXUXUXUX"
};
