/* XPM */
static char *d1cd17e9eda041abc69ca9eed2079c8djc8eBqQA3njnwUzQ[] = {
/* columns rows colors chars-per-pixel */
"60 60 256 2 ",
"   c black",
".  c #010101",
"X  c #020202",
"o  c gray1",
"O  c #040404",
"+  c gray2",
"@  c #060606",
"#  c #070707",
"$  c gray3",
"%  c #090909",
"&  c gray4",
"*  c #0B0B0B",
"=  c #0C0C0C",
"-  c gray5",
";  c #0E0E0E",
":  c gray6",
">  c #101010",
",  c #111111",
"<  c gray7",
"1  c #131313",
"2  c gray8",
"3  c #151515",
"4  c #161616",
"5  c gray9",
"6  c #181818",
"7  c #191919",
"8  c gray10",
"9  c #1B1B1B",
"0  c gray11",
"q  c #1D1D1D",
"w  c #1E1E1E",
"e  c gray12",
"r  c #202020",
"t  c gray13",
"y  c #222222",
"u  c #232323",
"i  c gray14",
"p  c #252525",
"a  c gray15",
"s  c #272727",
"d  c #282828",
"f  c gray16",
"g  c #2A2A2A",
"h  c gray17",
"j  c #2C2C2C",
"k  c #2D2D2D",
"l  c gray18",
"z  c #2F2F2F",
"x  c gray19",
"c  c #313131",
"v  c #323232",
"b  c gray20",
"n  c #343434",
"m  c #353535",
"M  c gray21",
"N  c #373737",
"B  c gray22",
"V  c #393939",
"C  c #3A3A3A",
"Z  c gray23",
"A  c #3C3C3C",
"S  c gray24",
"D  c #3E3E3E",
"F  c #3F3F3F",
"G  c gray25",
"H  c #414141",
"J  c gray26",
"K  c #434343",
"L  c #444444",
"P  c gray27",
"I  c #464646",
"U  c gray28",
"Y  c #484848",
"T  c #494949",
"R  c gray29",
"E  c #4B4B4B",
"W  c #4C4C4C",
"Q  c gray30",
"!  c #4E4E4E",
"~  c gray31",
"^  c #505050",
"/  c #515151",
"(  c gray32",
")  c #535353",
"_  c gray33",
"`  c #555555",
"'  c #565656",
"]  c gray34",
"[  c #585858",
"{  c gray35",
"}  c #5A5A5A",
"|  c #5B5B5B",
" . c gray36",
".. c #5D5D5D",
"X. c gray37",
"o. c #5F5F5F",
"O. c #606060",
"+. c gray38",
"@. c #626262",
"#. c gray39",
"$. c #646464",
"%. c #656565",
"&. c gray40",
"*. c #676767",
"=. c #686868",
"-. c DimGray",
";. c #6A6A6A",
":. c gray42",
">. c #6C6C6C",
",. c #6D6D6D",
"<. c gray43",
"1. c #6F6F6F",
"2. c gray44",
"3. c #717171",
"4. c #727272",
"5. c gray45",
"6. c #747474",
"7. c gray46",
"8. c #767676",
"9. c #777777",
"0. c gray47",
"q. c #797979",
"w. c gray48",
"e. c #7B7B7B",
"r. c #7C7C7C",
"t. c gray49",
"y. c #7E7E7E",
"u. c gray50",
"i. c #808080",
"p. c #818181",
"a. c gray51",
"s. c #838383",
"d. c #848484",
"f. c gray52",
"g. c #868686",
"h. c gray53",
"j. c #888888",
"k. c #898989",
"l. c gray54",
"z. c #8B8B8B",
"x. c gray55",
"c. c #8D8D8D",
"v. c #8E8E8E",
"b. c gray56",
"n. c #909090",
"m. c gray57",
"M. c #929292",
"N. c #939393",
"B. c gray58",
"V. c #959595",
"C. c gray59",
"Z. c #979797",
"A. c #989898",
"S. c gray60",
"D. c #9A9A9A",
"F. c #9B9B9B",
"G. c gray61",
"H. c #9D9D9D",
"J. c gray62",
"K. c #9F9F9F",
"L. c #A0A0A0",
"P. c gray63",
"I. c #A2A2A2",
"U. c gray64",
"Y. c #A4A4A4",
"T. c #A5A5A5",
"R. c gray65",
"E. c #A7A7A7",
"W. c gray66",
"Q. c #A9A9A9",
"!. c #AAAAAA",
"~. c gray67",
"^. c #ACACAC",
"/. c gray68",
"(. c #AEAEAE",
"). c #AFAFAF",
"_. c gray69",
"`. c #B1B1B1",
"'. c #B2B2B2",
"]. c gray70",
"[. c #B4B4B4",
"{. c gray71",
"}. c #B6B6B6",
"|. c #B7B7B7",
" X c gray72",
".X c #B9B9B9",
"XX c gray73",
"oX c #BBBBBB",
"OX c #BCBCBC",
"+X c gray74",
"@X c gray",
"#X c gray75",
"$X c #C0C0C0",
"%X c #C1C1C1",
"&X c gray76",
"*X c #C3C3C3",
"=X c gray77",
"-X c #C5C5C5",
";X c #C6C6C6",
":X c gray78",
">X c #C8C8C8",
",X c gray79",
"<X c #CACACA",
"1X c #CBCBCB",
"2X c gray80",
"3X c #CDCDCD",
"4X c #CECECE",
"5X c gray81",
"6X c #D0D0D0",
"7X c gray82",
"8X c #D2D2D2",
"9X c LightGray",
"0X c gray83",
"qX c #D5D5D5",
"wX c gray84",
"eX c #D7D7D7",
"rX c #D8D8D8",
"tX c gray85",
"yX c #DADADA",
"uX c gray86",
"iX c gainsboro",
"pX c #DDDDDD",
"aX c gray87",
"sX c #DFDFDF",
"dX c gray88",
"fX c #E1E1E1",
"gX c #E2E2E2",
"hX c gray89",
"jX c #E4E4E4",
"kX c gray90",
"lX c #E6E6E6",
"zX c #E7E7E7",
"xX c gray91",
"cX c #E9E9E9",
"vX c #EAEAEA",
"bX c gray92",
"nX c #ECECEC",
"mX c gray93",
"MX c #EEEEEE",
"NX c #EFEFEF",
"BX c gray94",
"VX c #F1F1F1",
"CX c gray95",
"ZX c #F3F3F3",
"AX c #F4F4F4",
"SX c gray96",
"DX c #F6F6F6",
"FX c gray97",
"GX c #F8F8F8",
"HX c #F9F9F9",
"JX c gray98",
"KX c #FBFBFB",
"LX c gray99",
"PX c #FDFDFD",
"IX c #FEFEFE",
"UX c white",
/* pixels */
"UXUXUXUXUXUXUXUXUXUXUXUXUXUXUXUXUXUXUXUXUXUXCXtXoXH.i.<.} ' [ &.9.m.).6XmXPXUXUXUXUXUXUXUXUXUXUXUXUXUXUXUXUXUXUXUXUXUXUX",
"UXUXUXUXUXUXUXUXUXUXUXUXUXUXUXUXUXUXUXmX#Xz.@.Y N z h f d s s f h l n J } y.`.hXIXUXUXUXUXUXUXUXUXUXUXUXUXUXUXUXUXUXUXUX",
"UXUXUXUXUXUXUXUXUXUXUXUXUXUXUXUXIXtXC.{ M g i t e e t y u u u u y y t u p f v W a.:XFXUXUXUXUXUXUXUXUXUXUXUXUXUXUXUXUXUX",
"UXUXUXUXUXUXUXUXUXUXUXUXUXUXUXiXl.P j i e e u d j l x c v v c c x z k g a u y a g Z ,..XAXUXUXUXUXUXUXUXUXUXUXUXUXUXUXUX",
"UXUXUXUXUXUXUXUXUXUXUXUXUXBXP.W j t q t f z b n n n n n b b b b b b b b v x j a y i g N >.;XKXUXUXUXUXUXUXUXUXFXqXDXUXUX",
"UXUXUXUXUXUXUXUXUXUXUXUX9X:.c y q u j c b b b b b b b b b b b b b b b b b b b c k d u p j D h.kXUXUXUXUXUXUXUXW.#.hXUXUX",
"UXUXUXUXUXUXUXUXUXUXPX}.E d w r h v b b b b b b b b b b b b b b b b b b b b b b b v l a u f x } =XUXUXUXUXUX,X[ +XUXUXUX",
"UXUXUXUXUXUXUXUXUXJXU.S u q s c n b b b b b b b b b b b b b b b b b b b b b b b b b b c h u a z J U.HXUXUXiX&.XXUXUXUXUX",
"UXUXUXUXUXUXUXUXHXS.B r e h v b b b b b b b b b b b b b b b b b b b b b b b b b b b b b v k p p l N b.FXlX;.!.UXUXUXUXUX",
"UXUXUXUXUXUXUXLXK.M e r l v b b b b b b b b b b b b b b b b b b b b b b b b b b b b b b b b l s u k M y.5.S.PXUXUXUXUXUX",
"UXUXUXUXUXUXUX(.A e r z b b b b b b b b b b b b b v c x x x x c v b b b b b b b b b b b b b b x a u z l ] NXUXUXUXUXUXUX",
"UXUXUXUXUXUX&XK r e l v b b b b b b b b b b c z z l z z z x x x x z z c v b b b b b b b b b b b x a p c V P.UXUXUXUXUXUX",
"UXUXUXUXUXaX` u q k v b b b b b b b b b c z l x c c v v c v v v v v c z z x v b b b b b b b b b b z a a c P >XUXUXUXUXUX",
"UXUXUXUXFXr.s 9 g b b b b b b b b b v z z x c v v v v c x c v v v v v v c x z c b b b b b b b b b b l p f c %.mXUXUXUXUX",
"UXUXUXUX[.M 0 p v b b b b b b b b c l x v v v v v v c c c c x c v v v v v v c z x v b b b b b b b b v h i l N F.UXUXUXUX",
"UXUXUXxX} y w z b b b b b b b v x x c v v c x v v v c b V N v x c b c z c v v v x z c b b b b b b b b c s s c ! yXUXUXUX",
"UXUXUXK.l 9 g v b b b b b b b z z v v v v c n z v c c m 3.] v c c c v N c v v v v c z v v v b b v v v v k i j m x.IXUXUX",
"UXUXcX' r t c v b b b b b v x z c v v v c M L v c c x Z -.{ b c c c m D v v v v v v x z v v v v v v v v c d p x ~ aXUXUX",
"UXUX).z 8 g v v b v v v v x z c v v v v v c b v v c x C ^ E n x c v c c c v b b v v v x z v v v v v v v v k i j N K.UXUX",
"UXFX,.t w x v v b v v v c z x c v v v v v v v b b v x x z x x x c v v c c v v b b v v v x x v v v v v v v x s a v +.mXUX",
"UXrXJ 0 a c v v v v v v x x c c v v v c c v v v v v v x z z x c v v c c c c v b b b v v c z c v v v v v v v h i z G *XUX",
"UXR.h 9 k v v v v v v c z c c c c c c c c v v v v c c c c c c c c c c c c c c v v v v c c z z v v v v v v v z p h M V.UX",
"KXw.y r c v v v v v v z x c c c c c c c c v v v c c c c c c c c c c c c c c c c c v v c c x l c v v v v v v c s s b 7.AX",
"cX] q a v v v v v v c l c c c c c c c c c c c c c c c c c c c c c c c c c c c c c v v v c c z x c v v v v v v g p x @.kX",
"6XG 9 g v v v v v v c z c c c c v c c c c c c c c c c c c c c c c c c c x c c c c v v v c x x x c c v v v v v j i h ' 0X",
"].c 9 k v v v v v v x x c c x x c c c c c x x c c c c c x c c c c c x x x x c c c v v v c x x x c c c c c c c l p g Y +X",
"G.g q z c c c c c c z x x x x x x x x x x x x x x x x z z x x x x x x x x x x x x x c c x x x z x x c c x x x z p d G E.",
"k.a e z c c c c c c z x x x x x x x x x x x x x x x x S W R B x x x x x x x x x x x x x x c x z x x x c x x x z p s Z Z.",
"9.u r x x c x x x x z x x x c x x x x x x x x x x x H o.o.X.{ M x x x x x x x x x x c c c c c z x x x x x x x z a a N l.",
":.t t x x x x x x x z x x c c c x x x x x x x x x c ' @.^ F ..U z x x x x x x x x c c c c c c x x x x x x x x x a a m s.",
"6.l u z x x x x x x z x x c c c c x x x x x x x x v { { R H #.T z x x x x x x x x c c c c c c x x x x x x x x x u i A t.",
"gXQ.D l x x x x x z z x x c c c c x x x x x x x x x U { X.' ..C z x x x x x x x x c c c c c c x z x x x x x x x y L OX6X",
"K.H i z x x x x x x z x x x c c c c x x x x x x x x v U { ` D z x x x x x x x x c c c c c c c x z x x x x x x z i k :.:X",
"l.a w l x x x x x x x x x x c c c c x x x x x x x x x z v v z x x x x x x x x x c c c c c c x x x z z z z z z k u d V L.",
"^.l 0 h z z z z z x x z z x x c c c x x x x x z x x z z z x x z z z z z z z z x c x c c x x z x z z z z z l l h u g K OX",
"-XN 9 g l l z z z z x z z x x c c c x x x x x z x x z z z z z z z z z z z z z z z x x x x z z x z z z z l l l g u j W 6X",
"sXR 0 s l l l l z z z x z z z z c c z z z z z z z z z z z z z z z z z z z z z z z x x x z z z z l l l l l l l s u j +.xX",
"SX:.w y l l l l z z z x z z z z x x z z z z z z z z z z z z z z z z z z z z z z z x x z z z z z l l l l l l l i a x s.JX",
"UXA.a w j l l l l l l l z l z z z x z z z z z z z z z z z z z z z z z z z z z z x x x z l z z l l l l l l l j u f B /.UX",
"UX<XB q s k l l l l l l z l l l l l z l l l l l l l l l l l l l l l l l l l l z z z l l l z l l l l l l l l d y j Q tXUX",
"UXBXX.e y j l l l l l l z z l l l l l l l l l l l l l l l l l l l l l l l l l l l l l l z z l l l l l l l k i p l r.GXUX",
"UXUXD.d q g l l l l l l l z z l l l l l l z z l l l l l l l l l l l z z z z z z l l l l z l l l l l l l l g y f A +XUXUX",
"UXUXyXL q u k l l l l l l l z l l l l l l z z z z z z z z z z z z z z z z z z l l l l z z l l l l l l k k p i h *.NXUXUX",
"UXUXPXd.p q f k l l l l l l l l l l l l l l z z z z z z z z z z z z z z z z l l l l z z l l l l l k j j f y d N _.UXUXUX",
"UXUXUXqXL q y h j j j j j j k l l l l l l l l z z z z z z z z z z z z z l l l l l l l l k k k j j h j h u u j =.NXUXUXUX",
"UXUXUXIXZ.f 0 p g h h h h h j j j k l k l l l l l z z z z z z z z z z l l l l l l j h h j j h h h h h a t d S $XUXUXUXUX",
"UXUXUXUXvX..t w s h h h h h h h h h k l l k k k k k l l l l z z l l k k k k l k h h h h h h h h h h d t a l l.JXUXUXUXUX",
"UXUXUXUXUX%XC w t d g g g g g g g g g h k k k j j j j j j j j j h h j j k k h g g g g g g g g g g d y u f @.xXUXUXUXUXUX",
"UXUXUXUXUXPXS.j q t d f f f f f f f f f f h k k k k j h h h h h j k k j h f f f f f f f f f f f d y y s W 8XUXUXUXUXUXUX",
"UXUXUXUXUXUXAXq.a 0 u d f f f f f f f f d d f g g h j j j j j j h h f d d d d d d d f f f f f d y t a L *XUXUXUXUXUXUXUX",
"UXUXUXUXUXUXUXzX%.i q y s d d d d d d d d d d d d d d d d d d f f d d d d d d d d d d d d f s y r i P %XUXUXUXUXUXUXUXUX",
"UXUXUXUXUXUXUXUXhX%.p q r p s s s s s s d s s s s s s s s s s d s s s s s s d d d d d d d p t r i E ;XUXUXUXUXUXUXUXUXUX",
"UXUXUXUXUXUXUXUXUXlX4.f q w u p s s a s s s s s a a a a a s s s a a s s a a s a a s s s i r r i _ 6XUXUXUXUXUXUXUXUXUXUX",
"UXUXUXUXUXUXUXUXUXUXCXm.v q q t i p p p p p p p p i p p i p p p p i p p i p p i p p u t e t s *.pXUXUXUXUXUXUXUXUXUXUXUX",
"UXUXUXUXUXUXUXUXUXUXUXLX{.W t 9 q t u i i u u u i i i i u i i u u u u u i i i i y r e e y M k.nXUXUXUXUXUXUXUXUXUXUXUXUX",
"UXUXUXUXUXUXUXUXUXUXUXUXUXfXu.c q 9 q r y y u u u u u y u y y y y y y u u y t r w w r s | $XLXUXUXUXUXUXUXUXUXUXUXUXUXUX",
"UXUXUXUXUXUXUXUXUXUXUXUXUXUXKX%X-.c q 9 q w r r r r r r t r r r t t r e w q w q q a E K.mXUXUXUXUXUXUXUXUXUXUXUXUXUXUXUX",
"UXUXUXUXUXUXUXUXUXUXUXUXUXUXUXUXFX,Xp.P a 9 8 9 0 0 0 q w w q q q 0 0 0 9 0 t M $.Q.zXUXUXUXUXUXUXUXUXUXUXUXUXUXUXUXUXUX",
"UXUXUXUXUXUXUXUXUXUXUXUXUXUXUXUXUXUXIXzX Xy.! c u q 0 0 q q q 0 q w y j L >.I.wXFXUXUXUXUXUXUXUXUXUXUXUXUXUXUXUXUXUXUXUX",
"UXUXUXUXUXUXUXUXUXUXUXUXUXUXUXUXUXUXUXUXUXUXnX<XI.0.| E F Z D Y [ 4.Z.$XhXJXUXUXUXUXUXUXUXUXUXUXUXUXUXUXUXUXUXUXUXUXUXUX"
};
