/* XPM */
static char *e74bfc4672fb4e328095a351e66d8036cIUZqCTvd9dJCq99[] = {
/* columns rows colors chars-per-pixel */
"40 40 160 2 ",
"   c #006F9C",
".  c #00729E",
"X  c #0075A4",
"o  c #017BAD",
"O  c #0C7FAB",
"+  c #117EA7",
"@  c #197EA2",
"#  c #117FA9",
"$  c #007EB2",
"%  c #1381AB",
"&  c #0282B5",
"*  c #0084BB",
"=  c #048CBE",
"-  c #0A8CBB",
";  c #198CB6",
":  c #2D8AAB",
">  c #308CAE",
",  c #228EB6",
"<  c #2F8DB0",
"1  c #308EB2",
"2  c #4695B1",
"3  c #0087C1",
"4  c #018BC4",
"5  c #008DCB",
"6  c #0391C5",
"7  c #0E95C5",
"8  c #0193CC",
"9  c #0895C8",
"0  c #0699CE",
"q  c #008FD1",
"w  c #0095D3",
"e  c #0A96D6",
"r  c #009AD4",
"t  c #0196DA",
"y  c #009BDC",
"u  c #089CDD",
"i  c #1295D1",
"p  c #129DDE",
"a  c #2A9AC7",
"s  c #3B9FC3",
"d  c #00A0DD",
"f  c #0CA3DF",
"g  c #19A1DE",
"h  c #3CA1C6",
"j  c #3CA2C9",
"k  c #32A5D9",
"l  c #009EE0",
"z  c #00A2E5",
"x  c #0EA3E2",
"c  c #00A6E8",
"v  c #01ACEC",
"b  c #09ACE9",
"n  c #17A3E1",
"m  c #1EAAE2",
"M  c #17ABE8",
"N  c #05B1EF",
"B  c #0AB3EF",
"V  c #11B6EF",
"C  c #1BB7EF",
"Z  c #1DB8EF",
"A  c #0DB5F1",
"S  c #11B7F0",
"D  c #14B9F0",
"F  c #1BBBF1",
"G  c #29AFE7",
"H  c #31ADE4",
"J  c #3EAEE2",
"K  c #23B7EE",
"L  c #2BB4EB",
"P  c #33B2E5",
"I  c #32BBEF",
"U  c #21BFF2",
"Y  c #2BBFF1",
"T  c #51A9C8",
"R  c #58B6DB",
"E  c #6FB0CA",
"W  c #79B4CB",
"Q  c #7CBDD6",
"!  c #43B6E5",
"~  c #4BB4E3",
"^  c #6CBEE4",
"/  c #24C1F2",
"(  c #2AC2F3",
")  c #31C4F3",
"_  c #3BC5F3",
"`  c #3EC9F4",
"'  c #42C6F4",
"]  c #4DC5F2",
"[  c #48C8F4",
"{  c #57CAF4",
"}  c #5CD1F6",
"|  c #65C0EA",
" . c #6AC3EA",
".. c #6EC9EF",
"X. c #79C5E2",
"o. c #72C7EC",
"O. c #7DC7EA",
"+. c #76CBEB",
"@. c #7BCCEE",
"#. c #74CDF1",
"$. c #65D3F6",
"%. c #6CD5F6",
"&. c #7ED4F4",
"*. c #8BC2D6",
"=. c #84CFEF",
"-. c #94D3EF",
";. c #9CD2EB",
":. c #8DD2F0",
">. c #83DAF7",
",. c #8ADCF7",
"<. c #8DDFF9",
"1. c #9DD6F1",
"2. c #92DFF8",
"3. c #AED5E3",
"4. c #A6D6E8",
"5. c #AFDBEC",
"6. c #B4DAE6",
"7. c #B1DCEB",
"8. c #BCDDE9",
"9. c #A4DBF2",
"0. c #ADDFF4",
"q. c #B6DFF2",
"w. c #90E0F8",
"e. c #9AE1F9",
"r. c #A7E2F6",
"t. c #A9E3F6",
"y. c #A2E5FA",
"u. c #ACE7FA",
"i. c #B3E1F4",
"p. c #BBE7F6",
"a. c #BCE8F7",
"s. c #B3E4F8",
"d. c #B7EAFB",
"f. c #BBEBFA",
"g. c #CEE5ED",
"h. c #D2E7EE",
"j. c #C3E6F5",
"k. c #C1EAF7",
"l. c #CCECFA",
"z. c #DCEDF2",
"x. c #D4EEF9",
"c. c #CBF1FC",
"v. c #D5F2FC",
"b. c #D5F3FC",
"n. c #DBF3FC",
"m. c #E2EEF3",
"M. c #E4F2F6",
"N. c #ECF4F7",
"B. c #EEF5F7",
"V. c #E3F5FC",
"C. c #EAF6FB",
"Z. c #E7F8FD",
"A. c #EBF9FE",
"S. c #EFF9FD",
"D. c #EDFAFE",
"F. c #F2FAFD",
"G. c #F4FAFC",
"H. c #F6FDFF",
"J. c #F9FDFF",
"K. c white",
/* pixels */
"K.K.K.K.K.K.K.K.K.K.K.K.K.K.K.K.J.D.n.b.b.n.A.J.K.K.K.K.K.K.K.K.K.K.K.K.K.K.K.K.",
"K.K.K.K.K.K.K.K.K.K.K.K.K.A.d.>.{ _ Y Z C K I ] &.s.Z.K.K.K.K.K.K.K.K.K.K.K.K.K.",
"K.K.K.K.K.K.K.K.K.K.K.b.>._ V N N N v v v v v v c b L #.l.K.K.K.K.K.K.K.K.K.K.K.",
"K.K.K.K.K.K.K.K.K.V.>.Y A A B B B N v v v v v v v c z z M ..n.K.K.K.K.K.K.K.K.K.",
"K.K.K.K.K.K.K.K.d.' D V S A B B B N v v v v v v v c c z z z G 9.J.K.K.K.K.K.K.K.",
"K.K.K.K.K.K.J.2.Y D D D S A B B B N v v v v v v v c c z z z l x @.F.K.K.K.K.K.K.",
"K.K.K.K.K.H.>.U F F D D S A B B B N v v v v v v v c c z z z z l l  .F.K.K.K.K.K.",
"K.K.K.K.J.<.U F F F D D S A B B B N v v v v v v v c c z z z z l l l ..H.K.K.K.K.",
"K.K.K.K.u./ F F F F D D S A A A N N v v v v v v v c c z z z z l l l l :.K.K.K.K.",
"K.K.K.b.` F F F F F D D S D V V V B B B B b b b b b c z z z z l l l y n j.K.K.K.",
"K.K.H.%.F U F F F F D D S &.k.a.a.a.a.a.a.p.p.p.p.p.R y z z z l l l y y ! D.K.K.",
"K.K.d.( / U F F F F D D V t.K.K.K.K.K.K.K.K.K.K.K.K.W $ y z z l l l y y u 1.K.K.",
"K.H.$./ / U F F F F D D V r.K.K.K.K.K.K.K.K.K.K.K.K.W   & y z l l l y y t J D.K.",
"K.c.) / / U F F F F D D V r.K.K.K.K.K.K.K.K.K.K.K.K.W X X * y z l l y y y u i.K.",
"K.<./ / / U F F F F D D V r.K.K.K.K.K.N.N.N.N.N.N.N.E X X X * y l l y y y t  .K.",
"F.} / / / U F F F F D D V r.K.K.K.K.m.2 : > > < 1 1 % X o o o * y l y y y t H C.",
"b.` / / / U F F F F D D V r.K.K.K.K.z.@   . . X X X X o o o o $ 3 y l y y t p j.",
"f.) / / / U F F F F D D V r.K.K.K.K.z.: + + # % % O o o o o $ $ $ 4 y y y y t 1.",
"y.( / / / U F F F F D D V r.K.K.K.K.H.h.g.g.g.g.h.*.o o $ $ $ $ & & 4 y y y t O.",
"2.( / / / U F F F F D D V r.K.K.K.K.K.K.K.K.K.K.K.3.o $ $ & & & & & * 5 t y t  .",
",.( / / / U F F F F D D V r.K.K.K.K.K.K.K.K.K.K.K.3.& & & & & & * * * 3 5 t t | ",
"w.( / / / U F F F F D D V r.K.K.K.K.K.K.K.K.K.K.K.3.& & & & * * * * 3 3 4 5 t  .",
"y.( / / / U F F F D D D V t.K.K.K.K.G.8.6.6.6.6.8.Q * & * * * 3 3 3 4 4 4 5 5 O.",
"f.) / / / U F F F D D D V r.K.K.K.K.z., & & & & & & * * * * 3 3 3 4 4 5 5 5 5 ;.",
"b.` / / / U F F F F D D V r.K.K.K.K.z.; $ & & & & * * * * 3 3 4 4 4 5 5 5 5 i j.",
"F.} / / / U F F F F D D V r.K.K.K.K.M.T s h h j j j a 3 3 3 4 4 5 5 5 5 5 5 k C.",
"K.<./ / / U F F F F D D V r.K.K.K.K.K.G.G.G.G.G.G.H.4.4 4 4 4 5 5 5 5 5 w q ^ K.",
"K.c.) / / U F F F F D D V r.K.K.K.K.K.K.K.K.K.K.K.K.5.4 4 5 8 8 5 5 w w w e q.K.",
"K.H.$./ / U F F F F D D V r.K.K.K.K.K.K.K.K.K.K.K.K.5.8 8 8 8 8 8 w w w w J F.K.",
"K.K.a.( / U F F F F D D V t.K.K.K.K.K.K.K.K.K.K.K.K.7.8 8 8 8 w w w r r e 9.K.K.",
"K.K.H.%.U U F F F F D D S +.6.6.6.6.7.7.7.7.7.7.7.7.X.8 8 8 w w r r t t ~ F.K.K.",
"K.K.K.b.` F F F F F D D S V 7 - - - = 4 6 6 6 8 8 8 8 8 w w r r r t t g j.K.K.K.",
"K.K.K.K.u.( F F F F D D S A b 9 = = 4 6 6 6 8 8 8 8 8 w w r r y y y u -.K.K.K.K.",
"K.K.K.K.K.2.U F F F D D S A A b 0 4 6 6 8 8 8 8 8 8 r r r r y y y y +.J.K.K.K.K.",
"K.K.K.K.K.J.,.U F F D D S A B A b 0 6 8 8 8 8 w r r r r y y y y u o.H.K.K.K.K.K.",
"K.K.K.K.K.K.J.e.( D D D S A B B A v r 8 8 w r r r r y y y y y x =.H.K.K.K.K.K.K.",
"K.K.K.K.K.K.K.K.a.[ D S S A A B B N v r r r r r r y y y y y H 0.K.K.K.K.K.K.K.K.",
"K.K.K.K.K.K.K.K.K.Z.,.) A A B B B N N v y r r y y y y y m +.V.K.K.K.K.K.K.K.K.K.",
"K.K.K.K.K.K.K.K.K.K.K.b.,.' F B N N v v v d y y y f P @.x.K.K.K.K.K.K.K.K.K.K.K.",
"K.K.K.K.K.K.K.K.K.K.K.K.K.D.d.&.[ Y V v v b m ! +.i.A.K.K.K.K.K.K.K.K.K.K.K.K.K."
};
